<?xml version="1.0" encoding="UTF-8"?>
<svg id="_레이어_1" data-name="레이어_1" xmlns="http://www.w3.org/2000/svg" version="1.1" viewBox="0 0 500 500">
  <!-- Generator: Adobe Illustrator 29.8.1, SVG Export Plug-In . SVG Version: 2.1.1 Build 2)  -->
  <defs>
    <style>
      .st0 {
        stroke-linecap: round;
        stroke-linejoin: round;
        stroke-width: 10px;
      }

      .st0, .st1 {
        fill: none;
        stroke: #1432a3;
      }

      .st1 {
        stroke-miterlimit: 10;
        stroke-width: 27px;
      }

      .st2 {
        fill: #f37021;
      }
    </style>
  </defs>
  <path class="st0" d="M72.8,119.4"/>
  <path class="st1" d="M71.9,102.3"/>
  <path class="st2" d="M246.5,22.1L56.9,88.8c-1.7.6-2.4,2.5-1.7,4l192.1,391.4c1.1,2.2,4.2,2.2,5.2,0L444.7,92.8c.8-1.6,0-3.5-1.7-4L253.5,22.1c-2.3-.8-4.7-.8-7,0ZM400.8,123.3l-149.3,306.3v-239c0-1.3.9-2.5,2.2-2.9l147.2-64.4ZM392.5,98.5c-42.5,18.5-117,50.8-141.3,61.6-.8.3-1.6.3-2.4,0-24.3-10.7-98.8-43.1-141.3-61.6l141.5-49.8c.7-.2,1.4-.2,2,0l141.5,49.8Z"/>
</svg>